<mxfile host="app.diagrams.net" modified="2023-01-26T03:00:50.312Z" agent="5.0 (Windows NT 10.0; Win64; x64) AppleWebKit/537.36 (KHTML, like Gecko) Chrome/104.0.0.0 Safari/537.36" etag="Sxoz_CyrSj3K8fki0qsQ" version="20.8.11" type="github">
  <diagram name="第 1 页" id="VaCn0rp0Gs9908Wjy8ii">
    <mxGraphModel dx="2284" dy="708" grid="1" gridSize="10" guides="1" tooltips="1" connect="1" arrows="1" fold="1" page="1" pageScale="1" pageWidth="850" pageHeight="1100" math="0" shadow="0">
      <root>
        <mxCell id="0" />
        <mxCell id="1" parent="0" />
        <mxCell id="XA-yXm1S3u3JwyBhoffh-2" value="hiOpenWindow()" style="rounded=0;whiteSpace=wrap;html=1;labelBackgroundColor=none;fillColor=#182E3E;strokeColor=#FFFFFF;fontColor=#FFFFFF;" parent="1" vertex="1">
          <mxGeometry x="120" y="40" width="120" height="40" as="geometry" />
        </mxCell>
        <mxCell id="XA-yXm1S3u3JwyBhoffh-27" value="hiCreateMenuItem" style="swimlane;whiteSpace=wrap;html=1;swimlaneFillColor=none;startSize=40;labelBackgroundColor=none;fillColor=#182E3E;strokeColor=#FFFFFF;fontColor=#FFFFFF;" parent="1" vertex="1">
          <mxGeometry x="120" y="120" width="320" height="200" as="geometry">
            <mxRectangle x="120" y="120" width="140" height="30" as="alternateBounds" />
          </mxGeometry>
        </mxCell>
        <mxCell id="XA-yXm1S3u3JwyBhoffh-75" value="" style="shape=table;startSize=0;container=1;collapsible=0;childLayout=tableLayout;rounded=1;shadow=0;sketch=0;fillColor=none;labelBackgroundColor=none;strokeColor=#FFFFFF;fontColor=#FFFFFF;" parent="XA-yXm1S3u3JwyBhoffh-27" vertex="1">
          <mxGeometry y="40" width="320" height="120" as="geometry" />
        </mxCell>
        <mxCell id="XA-yXm1S3u3JwyBhoffh-76" value="" style="shape=tableRow;horizontal=0;startSize=0;swimlaneHead=0;swimlaneBody=0;strokeColor=#FFFFFF;top=0;left=0;bottom=0;right=0;collapsible=0;dropTarget=0;fillColor=none;points=[[0,0.5],[1,0.5]];portConstraint=eastwest;rounded=1;shadow=0;sketch=0;labelBackgroundColor=none;fontColor=#FFFFFF;" parent="XA-yXm1S3u3JwyBhoffh-75" vertex="1">
          <mxGeometry width="320" height="40" as="geometry" />
        </mxCell>
        <mxCell id="XA-yXm1S3u3JwyBhoffh-77" value="?name" style="shape=partialRectangle;html=1;whiteSpace=wrap;connectable=0;strokeColor=#FFFFFF;overflow=hidden;fillColor=none;top=0;left=0;bottom=0;right=0;pointerEvents=1;rounded=1;shadow=0;sketch=0;startSize=25;labelBackgroundColor=none;fontColor=#FFFFFF;" parent="XA-yXm1S3u3JwyBhoffh-76" vertex="1">
          <mxGeometry width="80" height="40" as="geometry">
            <mxRectangle width="80" height="40" as="alternateBounds" />
          </mxGeometry>
        </mxCell>
        <mxCell id="XA-yXm1S3u3JwyBhoffh-78" value="&#39;trTaiseCurrentWindow" style="shape=partialRectangle;html=1;whiteSpace=wrap;connectable=0;strokeColor=#FFFFFF;overflow=hidden;fillColor=none;top=0;left=0;bottom=0;right=0;pointerEvents=1;rounded=1;shadow=0;sketch=0;startSize=25;labelBackgroundColor=none;fontColor=#FFFFFF;" parent="XA-yXm1S3u3JwyBhoffh-76" vertex="1">
          <mxGeometry x="80" width="240" height="40" as="geometry">
            <mxRectangle width="240" height="40" as="alternateBounds" />
          </mxGeometry>
        </mxCell>
        <mxCell id="XA-yXm1S3u3JwyBhoffh-79" value="" style="shape=tableRow;horizontal=0;startSize=0;swimlaneHead=0;swimlaneBody=0;strokeColor=#FFFFFF;top=0;left=0;bottom=0;right=0;collapsible=0;dropTarget=0;fillColor=none;points=[[0,0.5],[1,0.5]];portConstraint=eastwest;rounded=1;shadow=0;sketch=0;labelBackgroundColor=none;fontColor=#FFFFFF;" parent="XA-yXm1S3u3JwyBhoffh-75" vertex="1">
          <mxGeometry y="40" width="320" height="40" as="geometry" />
        </mxCell>
        <mxCell id="XA-yXm1S3u3JwyBhoffh-80" value="?itemText" style="shape=partialRectangle;html=1;whiteSpace=wrap;connectable=0;strokeColor=#FFFFFF;overflow=hidden;fillColor=none;top=0;left=0;bottom=0;right=0;pointerEvents=1;rounded=1;shadow=0;sketch=0;startSize=25;labelBackgroundColor=none;fontColor=#FFFFFF;" parent="XA-yXm1S3u3JwyBhoffh-79" vertex="1">
          <mxGeometry width="80" height="40" as="geometry">
            <mxRectangle width="80" height="40" as="alternateBounds" />
          </mxGeometry>
        </mxCell>
        <mxCell id="XA-yXm1S3u3JwyBhoffh-81" value="&quot;Raise Current Window&quot;" style="shape=partialRectangle;html=1;whiteSpace=wrap;connectable=0;strokeColor=#FFFFFF;overflow=hidden;fillColor=none;top=0;left=0;bottom=0;right=0;pointerEvents=1;rounded=1;shadow=0;sketch=0;startSize=25;labelBackgroundColor=none;fontColor=#FFFFFF;" parent="XA-yXm1S3u3JwyBhoffh-79" vertex="1">
          <mxGeometry x="80" width="240" height="40" as="geometry">
            <mxRectangle width="240" height="40" as="alternateBounds" />
          </mxGeometry>
        </mxCell>
        <mxCell id="XA-yXm1S3u3JwyBhoffh-82" value="" style="shape=tableRow;horizontal=0;startSize=0;swimlaneHead=0;swimlaneBody=0;strokeColor=#FFFFFF;top=0;left=0;bottom=0;right=0;collapsible=0;dropTarget=0;fillColor=none;points=[[0,0.5],[1,0.5]];portConstraint=eastwest;rounded=1;shadow=0;sketch=0;labelBackgroundColor=none;fontColor=#FFFFFF;" parent="XA-yXm1S3u3JwyBhoffh-75" vertex="1">
          <mxGeometry y="80" width="320" height="40" as="geometry" />
        </mxCell>
        <mxCell id="XA-yXm1S3u3JwyBhoffh-83" value="?callback" style="shape=partialRectangle;html=1;whiteSpace=wrap;connectable=0;strokeColor=#FFFFFF;overflow=hidden;fillColor=none;top=0;left=0;bottom=0;right=0;pointerEvents=1;rounded=1;shadow=0;sketch=0;startSize=25;labelBackgroundColor=none;fontColor=#FFFFFF;" parent="XA-yXm1S3u3JwyBhoffh-82" vertex="1">
          <mxGeometry width="80" height="40" as="geometry">
            <mxRectangle width="80" height="40" as="alternateBounds" />
          </mxGeometry>
        </mxCell>
        <mxCell id="XA-yXm1S3u3JwyBhoffh-84" value="&quot;hiRaiseWindow(hiGetCurrentWindow())&quot;" style="shape=partialRectangle;html=1;whiteSpace=wrap;connectable=0;strokeColor=#FFFFFF;overflow=hidden;fillColor=none;top=0;left=0;bottom=0;right=0;pointerEvents=1;rounded=1;shadow=0;sketch=0;startSize=25;labelBackgroundColor=none;fontColor=#FFFFFF;" parent="XA-yXm1S3u3JwyBhoffh-82" vertex="1">
          <mxGeometry x="80" width="240" height="40" as="geometry">
            <mxRectangle width="240" height="40" as="alternateBounds" />
          </mxGeometry>
        </mxCell>
        <mxCell id="XA-yXm1S3u3JwyBhoffh-86" value="" style="strokeWidth=2;html=1;shape=mxgraph.flowchart.annotation_2;align=left;labelPosition=right;pointerEvents=1;rounded=1;shadow=0;sketch=0;startSize=25;fillColor=none;labelBackgroundColor=none;strokeColor=#FFFFFF;fontColor=#FFFFFF;" parent="1" vertex="1">
          <mxGeometry x="70" y="120" width="50" height="200" as="geometry" />
        </mxCell>
        <mxCell id="XA-yXm1S3u3JwyBhoffh-88" value="&lt;span data-darkreader-inline-bgcolor=&quot;&quot; style=&quot;--darkreader-inline-bgcolor:#273b20;&quot;&gt;&lt;font style=&quot;&quot; color=&quot;#ffffff&quot;&gt;trRaiseCurentWindow&lt;/font&gt;&lt;/span&gt;" style="rounded=1;whiteSpace=wrap;html=1;absoluteArcSize=1;arcSize=14;strokeWidth=2;shadow=0;sketch=0;startSize=25;fillColor=none;labelBackgroundColor=none;strokeColor=#FFFFFF;fontColor=#FFFFFF;" parent="1" vertex="1">
          <mxGeometry x="-100" y="200" width="170" height="40" as="geometry" />
        </mxCell>
        <mxCell id="XA-yXm1S3u3JwyBhoffh-94" value="creating a new window to be used as the current window" style="text;html=1;strokeColor=none;fillColor=none;align=center;verticalAlign=middle;whiteSpace=wrap;rounded=0;fontColor=#FFFFFF;labelBackgroundColor=none;" parent="1" vertex="1">
          <mxGeometry x="280" y="40" width="180" height="40" as="geometry" />
        </mxCell>
        <mxCell id="XA-yXm1S3u3JwyBhoffh-95" value="creating the &quot;Raise Current Window&quot; menu item" style="text;html=1;strokeColor=none;fillColor=none;align=center;verticalAlign=middle;whiteSpace=wrap;rounded=0;fontColor=#FFFFFF;labelBackgroundColor=none;" parent="1" vertex="1">
          <mxGeometry x="480" y="120" width="200" height="40" as="geometry" />
        </mxCell>
        <mxCell id="XA-yXm1S3u3JwyBhoffh-96" value="creating the Navigation pulldown menu" style="text;html=1;strokeColor=none;fillColor=none;align=center;verticalAlign=middle;whiteSpace=wrap;rounded=0;fontColor=#FFFFFF;labelBackgroundColor=none;" parent="1" vertex="1">
          <mxGeometry x="480" y="360" width="240" height="40" as="geometry" />
        </mxCell>
        <mxCell id="FLP29-iPGuptHJZGsI00-1" value="" style="swimlane;startSize=0;" vertex="1" parent="1">
          <mxGeometry x="100" y="360" width="200" height="200" as="geometry" />
        </mxCell>
      </root>
    </mxGraphModel>
  </diagram>
</mxfile>
